<?xml version="1.0" standalone="no"?>
<!DOCTYPE svg PUBLIC "-//W3C//DTD SVG 20010904//EN"
 "http://www.w3.org/TR/2001/REC-SVG-20010904/DTD/svg10.dtd">
<svg version="1.0" xmlns="http://www.w3.org/2000/svg"
 width="847.000000pt" height="847.000000pt" viewBox="0 0 847.000000 847.000000"
 preserveAspectRatio="xMidYMid meet">
<metadata>
Created by potrace 1.14, written by Peter Selinger 2001-2017
</metadata>
<g transform="translate(0.000000,847.000000) scale(0.100000,-0.100000)"
fill="#000000" stroke="none">
<path d="M0 6190 l0 -2280 35 0 35 0 0 50 0 50 36 0 c30 0 37 4 45 30 10 28
14 30 65 30 l54 0 0 40 0 40 40 0 40 0 0 40 c0 33 3 40 20 40 18 0 20 7 20 80
l0 80 30 0 c22 0 31 5 35 23 6 21 10 22 85 20 51 -2 82 1 86 9 4 6 6 33 5 60
l-2 48 76 0 75 0 0 40 c0 29 4 40 15 40 11 0 15 -11 15 -40 0 -33 3 -40 20
-40 17 0 20 7 20 40 l0 40 50 0 50 0 0 40 0 40 60 0 60 0 0 40 c0 29 -4 40
-15 40 -8 0 -15 5 -15 10 0 6 14 10 31 10 24 0 32 6 40 30 9 25 16 30 45 30
19 0 34 5 34 10 0 6 16 10 36 10 30 0 37 4 45 30 9 25 16 30 44 30 24 0 35 -5
40 -19 6 -21 55 -26 67 -7 4 6 8 32 8 59 l0 47 80 0 80 0 0 40 0 40 40 0 40 0
0 40 c0 40 0 40 39 40 30 0 41 -5 46 -19 6 -21 55 -26 67 -7 4 6 8 32 8 57 l0
46 46 7 c26 3 64 6 85 6 22 0 39 5 39 10 0 6 -24 10 -52 11 -38 0 -47 3 -33 9
11 4 47 6 80 4 45 -4 63 -10 74 -24 25 -36 41 -24 41 28 0 36 5 54 20 67 11
10 20 24 20 32 0 9 13 13 40 13 22 0 40 5 40 10 0 6 16 10 36 10 30 0 37 4 45
30 9 25 16 30 44 30 24 0 35 -5 40 -18 3 -13 15 -19 35 -20 30 -1 32 2 34 48
1 21 6 25 38 28 25 2 41 10 48 23 8 13 21 19 45 19 19 0 35 5 35 10 0 6 7 10
15 10 8 0 15 -5 15 -12 0 -6 7 -3 15 8 14 18 16 18 29 2 8 -11 27 -18 50 -18
35 0 36 1 36 40 l0 40 80 0 c44 0 80 4 80 9 0 6 17 11 38 13 34 3 38 6 46 41
l10 37 148 0 149 0 10 30 c9 25 16 30 45 30 19 0 34 5 34 10 0 6 7 10 15 10 8
0 15 -5 15 -12 0 -6 7 -3 15 8 14 18 16 18 29 2 25 -33 46 -22 46 22 0 30 -4
40 -16 40 -9 0 -14 6 -11 13 2 6 15 12 30 12 14 0 29 3 33 8 4 4 22 7 40 7 34
0 56 22 47 48 -3 6 2 12 11 12 9 0 16 -5 16 -12 0 -6 6 -4 13 7 18 23 33 14
40 -25 6 -30 7 -30 76 -30 60 0 72 3 81 20 8 15 21 20 50 20 40 0 40 0 40 -40
0 -39 1 -40 35 -40 19 0 35 5 35 10 0 6 7 10 15 10 8 0 15 -5 15 -12 0 -6 7
-3 15 8 14 18 16 18 29 2 7 -10 26 -18 43 -18 27 0 32 -4 37 -32 l6 -33 55 3
c40 3 55 0 55 -9 0 -8 5 -5 13 6 18 23 33 14 40 -25 l7 -30 109 0 c100 0 111
2 121 20 10 19 8 20 -35 20 -25 0 -45 5 -45 10 0 6 25 10 55 10 36 0 55 -4 55
-12 0 -6 7 -3 15 8 15 19 15 19 30 0 8 -11 15 -37 15 -58 0 -37 1 -38 34 -38
19 0 36 4 38 9 5 15 108 17 117 2 6 -10 10 -8 15 6 7 15 10 12 23 -19 13 -32
20 -38 44 -38 18 0 32 7 39 20 9 17 21 20 81 20 49 0 75 4 86 15 8 8 19 13 24
10 14 -9 11 -25 -5 -25 -9 0 -15 -15 -18 -47 -6 -63 -1 -73 33 -73 29 0 50 24
42 48 -3 9 11 12 51 12 37 0 56 -4 56 -12 0 -6 7 -3 15 8 14 18 16 18 29 2 9
-12 27 -18 55 -18 l41 0 0 -40 c0 -38 2 -40 31 -40 17 0 38 7 47 16 14 15 17
15 27 1 10 -14 12 -14 22 1 11 16 12 16 12 0 1 -10 6 -18 11 -18 6 0 10 -18
10 -40 0 -22 -5 -40 -10 -40 -6 0 -5 -8 2 -20 11 -17 24 -20 80 -20 57 0 69 3
78 20 8 15 21 20 50 20 40 0 40 0 40 -40 0 -22 -5 -40 -10 -40 -6 0 -5 -8 2
-20 11 -17 24 -20 80 -20 57 0 69 3 78 20 7 13 21 20 39 20 25 0 30 -5 35 -35
5 -24 11 -33 21 -28 9 3 15 -1 15 -8 0 -8 6 -5 15 7 15 19 15 19 30 0 8 -11
15 -37 15 -58 l0 -38 74 0 c66 0 75 -2 81 -20 4 -14 15 -20 35 -20 19 0 33 -7
40 -20 7 -14 21 -20 45 -20 25 0 35 -5 40 -20 5 -15 15 -20 40 -20 19 0 37 -5
40 -11 4 -6 30 -9 58 -8 33 2 52 -1 55 -9 2 -7 -7 -12 -22 -12 -24 0 -25 -2
-14 -20 8 -12 24 -20 40 -20 17 0 31 -8 38 -20 7 -13 21 -20 40 -20 19 0 34
-7 42 -20 8 -13 24 -20 44 -20 17 0 39 -8 50 -18 17 -16 20 -17 30 -4 15 20
30 9 37 -28 6 -25 11 -30 36 -30 20 0 34 -7 41 -20 13 -25 57 -27 63 -2 4 16
5 16 6 0 0 -10 6 -18 11 -18 6 0 10 -18 10 -40 0 -36 3 -40 24 -40 15 0 26 7
29 18 4 16 5 16 6 0 0 -10 6 -18 12 -18 7 0 10 -18 9 -47 -2 -27 -2 -54 -1
-60 2 -20 58 -16 70 5 8 14 10 10 11 -20 0 -35 2 -38 29 -38 25 0 30 -5 35
-35 5 -24 11 -33 21 -28 9 3 15 -1 15 -8 0 -8 6 -5 15 7 15 19 15 19 30 0 8
-11 15 -37 15 -58 l0 -38 80 0 80 0 0 -40 0 -40 40 0 40 0 0 -40 0 -40 40 0
c40 0 40 0 40 -39 0 -22 -5 -41 -11 -43 -8 -3 -9 -15 -4 -36 4 -18 11 -29 17
-26 15 10 28 -16 28 -58 l0 -38 65 0 65 0 0 -40 c0 -39 1 -40 35 -40 34 0 35
-1 35 -40 l0 -40 46 0 46 0 -2 -47 c-4 -71 -3 -73 30 -73 19 0 33 -7 40 -20 8
-15 21 -20 50 -20 40 0 40 0 40 -40 l0 -40 40 0 40 0 0 -40 c0 -39 1 -40 35
-40 l35 0 0 2440 0 2440 -4235 0 -4235 0 0 -2280z m6280 336 c0 -26 -25 -64
-35 -54 -4 4 -2 21 4 39 6 17 8 35 5 40 -3 5 2 6 10 3 9 -3 16 -16 16 -28z
m-1503 -688 c-3 -8 -6 -5 -6 6 -1 11 2 17 5 13 3 -3 4 -12 1 -19z m479 -85
c-10 -10 -19 5 -10 18 6 11 8 11 12 0 2 -7 1 -15 -2 -18z m-3186 -393 c10 -7
-12 -10 -72 -10 -52 0 -88 4 -88 10 0 13 140 13 160 0z m-240 -20 c0 -5 -7
-10 -15 -10 -8 0 -15 5 -15 10 0 6 7 10 15 10 8 0 15 -4 15 -10z m-55 -60 c3
-5 1 -10 -4 -10 -6 0 -11 5 -11 10 0 6 2 10 4 10 3 0 8 -4 11 -10z m5001 -167
c-10 -10 -19 5 -10 18 6 11 8 11 12 0 2 -7 1 -15 -2 -18z m581 -385 c-2 -13
-4 -3 -4 22 0 25 2 35 4 23 2 -13 2 -33 0 -45z m551 -566 c2 -7 -6 -12 -17
-12 -21 0 -27 11 -14 24 9 9 26 2 31 -12z m232 -192 c0 -5 -13 -10 -30 -10
-16 0 -30 5 -30 10 0 6 14 10 30 10 17 0 30 -4 30 -10z m0 -40 c0 -5 -13 -10
-30 -10 -16 0 -30 5 -30 10 0 6 14 10 30 10 17 0 30 -4 30 -10z m237 -172 c-3
-8 -6 -5 -6 6 -1 11 2 17 5 13 3 -3 4 -12 1 -19z"/>
<path d="M3940 5902 c0 -10 22 -32 32 -32 4 0 8 9 8 20 0 13 -7 20 -20 20 -11
0 -20 -4 -20 -8z"/>
<path d="M3181 5733 c2 -49 12 -52 53 -17 l39 34 -46 0 c-38 0 -47 -3 -46 -17z"/>
<path d="M5470 5550 c0 -33 3 -40 20 -40 17 0 20 7 20 40 0 33 -3 40 -20 40
-17 0 -20 -7 -20 -40z"/>
<path d="M6110 5310 c0 -33 3 -40 20 -40 17 0 20 7 20 40 0 33 -3 40 -20 40
-17 0 -20 -7 -20 -40z"/>
<path d="M0 895 l0 -895 4235 0 4235 0 0 478 0 477 -365 -3 -365 -4 -1 99 c0
54 0 126 1 159 2 88 -7 94 -130 94 -54 0 -101 4 -104 8 -3 5 2 21 10 36 7 16
14 53 14 82 0 47 -2 54 -20 54 -18 0 -20 7 -20 55 0 38 4 55 13 55 9 0 12 19
12 65 l0 65 -77 0 c-42 0 -80 -4 -83 -10 -3 -5 -2 -10 3 -10 9 0 8 -72 -2 -88
-3 -5 3 -12 14 -15 17 -4 20 -14 20 -61 0 -49 -2 -56 -20 -56 -18 0 -20 -7
-20 -57 1 -35 6 -66 15 -77 20 -26 19 -71 -1 -91 -12 -12 -25 -14 -52 -8 -42
9 -171 7 -180 -2 -4 -3 -1 -9 5 -13 12 -8 8 -71 -6 -85 -5 -5 -17 -7 -25 -4
-12 5 -16 21 -16 62 0 64 -10 72 -95 71 l-50 -1 -3 -72 c-3 -78 0 -75 -76 -88
-22 -4 -63 -19 -90 -33 -28 -15 -62 -29 -76 -32 -23 -5 -25 -10 -25 -54 0 -56
-21 -80 -52 -60 -15 10 -18 29 -20 129 -1 113 -2 119 -25 131 -12 7 -47 13
-76 14 -56 0 -63 6 -66 55 0 14 -7 25 -13 25 -19 0 -18 106 1 113 9 4 13 23
12 64 -1 52 -3 58 -23 61 -21 3 -23 9 -23 63 0 53 3 61 23 69 12 5 16 9 9 9
-10 1 -12 9 -7 30 3 17 2 32 -4 36 -8 4 -8 12 -1 26 10 18 7 19 -72 19 -59 0
-79 -3 -71 -11 13 -13 5 -91 -11 -101 -6 -5 -1 -8 12 -8 21 0 22 -4 22 -65 0
-57 -2 -65 -19 -65 -16 0 -20 -9 -23 -57 -2 -37 1 -61 10 -69 11 -11 17 -60
13 -100 -1 -7 -33 -15 -82 -19 -80 -7 -81 -8 -95 -41 -8 -19 -20 -34 -27 -34
-9 0 -11 -30 -9 -120 l3 -121 -108 3 -108 3 0 77 0 78 -38 15 c-20 8 -51 15
-67 15 -33 0 -41 9 -42 50 -1 23 -7 31 -29 39 -20 7 -27 15 -23 25 3 9 10 16
14 16 4 0 18 16 29 36 20 33 21 40 8 83 l-13 46 -119 0 -119 0 -16 -45 c-16
-45 -16 -80 1 -80 5 0 9 -18 9 -40 0 -46 -3 -47 -117 -52 -40 -2 -76 -7 -80
-12 -4 -4 -10 -65 -13 -134 l-5 -127 -564 -3 -563 -2 4 30 c4 26 1 30 -26 36
-17 4 -105 6 -196 6 -91 -1 -181 1 -200 4 l-35 6 1 165 c1 153 -1 166 -18 171
-10 2 -17 9 -16 16 3 11 -4 16 -20 16 -5 0 -6 -52 -4 -116 4 -109 4 -116 -14
-112 -15 2 -20 14 -24 53 l-5 50 -145 2 c-188 2 -195 0 -206 -45 l-9 -37 -81
3 -82 3 -1 -122 c-1 -67 -6 -130 -12 -140 -9 -18 -23 -19 -252 -17 l-242 3 0
47 c0 45 -2 48 -30 54 -16 4 -57 21 -90 38 -100 51 -232 48 -343 -8 -15 -7
-45 -17 -66 -20 -25 -5 -35 -10 -27 -15 7 -5 11 -23 9 -47 l-3 -39 -221 -3
-222 -2 -5 32 c-2 18 0 38 5 45 6 8 -1 13 -24 18 -18 4 -64 24 -103 43 -64 33
-77 36 -155 36 -73 0 -96 -4 -160 -31 -41 -18 -87 -35 -101 -38 -23 -6 -25
-11 -25 -53 l1 -47 -245 -3 c-135 -1 -256 0 -268 3 -23 6 -24 8 -20 115 1 61
0 110 -4 110 -5 0 -8 27 -8 60 0 33 -1 61 -2 62 -2 1 -84 4 -183 7 l-180 6 -3
51 c-2 36 1 54 13 64 10 8 15 30 15 71 0 52 -2 58 -22 61 -13 2 -23 9 -22 16
1 6 2 32 3 57 1 33 5 45 16 45 8 0 15 5 15 10 0 6 -4 10 -9 10 -13 0 -6 67 9
85 11 13 8 15 -24 15 l-36 0 0 -895z m6378 858 c2 -9 -9 -13 -37 -13 -30 0
-41 4 -41 16 0 11 9 14 37 12 20 -2 38 -9 41 -15z m1032 -57 c0 -11 -19 -15
-25 -6 -3 5 1 10 9 10 9 0 16 -2 16 -4z m80 -6 c0 -5 -2 -10 -4 -10 -3 0 -8 5
-11 10 -3 6 -1 10 4 10 6 0 11 -4 11 -10z m198 -483 l3 -48 -88 3 c-83 3 -88
4 -91 26 -2 13 3 25 12 28 9 3 16 15 16 26 0 17 6 19 73 16 l72 -3 3 -48z
m-1448 26 c0 -15 -9 -18 -57 -18 -34 0 -58 5 -60 12 -5 14 17 20 75 22 34 1
42 -2 42 -16z m1125 -38 c0 -25 -4 -30 -25 -30 -18 0 -26 6 -28 23 -3 19 -9
22 -52 22 -27 0 -51 4 -55 10 -3 5 26 8 77 7 l83 -2 0 -30z m-1945 -10 c0 -25
-1 -25 -80 -25 -73 0 -80 2 -80 19 0 21 -2 20 133 29 23 2 27 -2 27 -23z
m-153 -67 c-3 -8 -6 -5 -6 6 -1 11 2 17 5 13 3 -3 4 -12 1 -19z m-2914 -47 c5
-5 6 -15 2 -22 -6 -9 -35 -10 -114 -5 -58 4 -107 9 -110 11 -2 3 2 11 9 20 10
12 31 14 107 10 53 -2 100 -8 106 -14z m2914 -13 c-3 -7 -5 -2 -5 12 0 14 2
19 5 13 2 -7 2 -19 0 -25z m1657 0 c-7 -12 -82 -10 -89 2 -4 6 10 10 34 10 26
0 41 5 41 13 0 8 3 7 9 -3 6 -8 7 -18 5 -22z m-5629 2 c-3 -5 -26 -10 -51 -10
-24 0 -44 5 -44 10 0 6 23 10 51 10 31 0 48 -4 44 -10z"/>
<path d="M8053 1238 c1 -8 -11 -14 -28 -16 -16 -2 -33 -9 -36 -14 -11 -17 11
-67 35 -81 18 -10 56 -18 56 -12 0 1 -5 16 -11 33 -12 35 2 72 26 72 8 0 15 5
15 11 0 6 -9 9 -20 6 -11 -3 -20 -1 -20 4 0 5 -4 9 -10 9 -5 0 -9 -6 -7 -12z"/>
<path d="M8420 1195 c-12 -31 -56 -34 -87 -6 -13 13 -25 16 -34 10 -8 -5 -28
-9 -45 -9 -19 0 -34 -6 -38 -15 -4 -11 -13 -14 -29 -9 -21 5 -25 1 -30 -23 -7
-36 0 -45 22 -33 10 5 45 13 76 18 49 8 65 6 99 -9 23 -10 58 -19 79 -19 l37
0 0 45 c0 25 -4 45 -10 45 -5 0 -10 7 -10 15 0 24 -20 17 -30 -10z"/>
<path d="M7870 1170 c0 -5 5 -10 10 -10 6 0 10 5 10 10 0 6 -4 10 -10 10 -5 0
-10 -4 -10 -10z"/>
<path d="M8130 1101 c0 -6 5 -13 10 -16 6 -3 10 1 10 9 0 9 -4 16 -10 16 -5 0
-10 -4 -10 -9z"/>
</g>
</svg>
